<svg width="22" height="20" viewBox="0 0 22 20" fill="none" xmlns="http://www.w3.org/2000/svg">
<path d="M21 4.5H15" stroke="#3D5278" stroke-width="1.5" stroke-miterlimit="10" stroke-linecap="round" stroke-linejoin="round"/>
<path d="M5 4.5H1" stroke="#3D5278" stroke-width="1.5" stroke-miterlimit="10" stroke-linecap="round" stroke-linejoin="round"/>
<path d="M9 8C10.933 8 12.5 6.433 12.5 4.5C12.5 2.567 10.933 1 9 1C7.067 1 5.5 2.567 5.5 4.5C5.5 6.433 7.067 8 9 8Z" stroke="#3D5278" stroke-width="1.5" stroke-miterlimit="10" stroke-linecap="round" stroke-linejoin="round"/>
<path d="M21 15.5H17" stroke="#3D5278" stroke-width="1.5" stroke-miterlimit="10" stroke-linecap="round" stroke-linejoin="round"/>
<path d="M7 15.5H1" stroke="#3D5278" stroke-width="1.5" stroke-miterlimit="10" stroke-linecap="round" stroke-linejoin="round"/>
<path d="M13 19C14.933 19 16.5 17.433 16.5 15.5C16.5 13.567 14.933 12 13 12C11.067 12 9.5 13.567 9.5 15.5C9.5 17.433 11.067 19 13 19Z" stroke="#3D5278" stroke-width="1.5" stroke-miterlimit="10" stroke-linecap="round" stroke-linejoin="round"/>
</svg>
