<svg width="20" height="20" viewBox="0 0 20 20" fill="none" xmlns="http://www.w3.org/2000/svg">
<path d="M10 0C4.48 0 0 4.48 0 10C0 15.52 4.48 20 10 20C15.52 20 20 15.52 20 10C20 4.48 15.53 0 10 0Z" fill="#90A3BF"/>
<rect x="2" y="2" width="16" height="16" rx="8" fill="white"/>
<path d="M10 4C6.688 4 4 6.688 4 10C4 13.312 6.688 16 10 16C13.312 16 16 13.312 16 10C16 6.688 13.318 4 10 4Z" fill="#90A3BF"/>
<rect x="6" y="6" width="8" height="8" rx="4" fill="white"/>
<rect x="9" y="15" width="2" height="4" fill="#90A3BF"/>
<rect x="15" y="9" width="4" height="2" fill="#90A3BF"/>
<rect x="1" y="9" width="4" height="2" fill="#90A3BF"/>
</svg>
