<svg width="44" height="44" viewBox="0 0 44 44" fill="none" xmlns="http://www.w3.org/2000/svg">
<path d="M29.34 24.49L28.34 22.83C28.13 22.46 27.94 21.76 27.94 21.35V18.82C27.94 16.47 26.56 14.44 24.57 13.49C24.05 12.57 23.09 12 21.99 12C20.9 12 19.92 12.59 19.4 13.52C17.45 14.49 16.1 16.5 16.1 18.82V21.35C16.1 21.76 15.91 22.46 15.7 22.82L14.69 24.49C14.29 25.16 14.2 25.9 14.45 26.58C14.69 27.25 15.26 27.77 16 28.02C17.94 28.68 19.98 29 22.02 29C24.06 29 26.1 28.68 28.04 28.03C28.74 27.8 29.28 27.27 29.54 26.58C29.8 25.89 29.73 25.13 29.34 24.49Z" fill="#3D5278"/>
<path d="M24.83 30.01C24.41 31.17 23.3 32 22 32C21.21 32 20.43 31.68 19.88 31.11C19.56 30.81 19.32 30.41 19.18 30C19.31 30.02 19.44 30.03 19.58 30.05C19.81 30.08 20.05 30.11 20.29 30.13C20.86 30.18 21.44 30.21 22.02 30.21C22.59 30.21 23.16 30.18 23.72 30.13C23.93 30.11 24.14 30.1 24.34 30.07C24.5 30.05 24.66 30.03 24.83 30.01Z" fill="#3D5278"/>
<rect opacity="0.8" x="0.5" y="0.5" width="43" height="43" rx="21.5" stroke="#C3D4E9" stroke-opacity="0.4"/>
<circle cx="36.5" cy="7.5" r="5.5" fill="#FF4423"/>
</svg>
