<svg width="44" height="44" viewBox="0 0 44 44" fill="none" xmlns="http://www.w3.org/2000/svg">
<path d="M30.1 19.22C28.29 19.22 27.55 17.94 28.45 16.37C28.97 15.46 28.66 14.3 27.75 13.78L26.02 12.79C25.23 12.32 24.21 12.6 23.74 13.39L23.63 13.58C22.73 15.15 21.25 15.15 20.34 13.58L20.23 13.39C19.78 12.6 18.76 12.32 17.97 12.79L16.24 13.78C15.33 14.3 15.02 15.47 15.54 16.38C16.45 17.94 15.71 19.22 13.9 19.22C12.86 19.22 12 20.07 12 21.12V22.88C12 23.92 12.85 24.78 13.9 24.78C15.71 24.78 16.45 26.06 15.54 27.63C15.02 28.54 15.33 29.7 16.24 30.22L17.97 31.21C18.76 31.68 19.78 31.4 20.25 30.61L20.36 30.42C21.26 28.85 22.74 28.85 23.65 30.42L23.76 30.61C24.23 31.4 25.25 31.68 26.04 31.21L27.77 30.22C28.68 29.7 28.99 28.53 28.47 27.63C27.56 26.06 28.3 24.78 30.11 24.78C31.15 24.78 32.01 23.93 32.01 22.88V21.12C32 20.08 31.15 19.22 30.1 19.22ZM22 25.25C20.21 25.25 18.75 23.79 18.75 22C18.75 20.21 20.21 18.75 22 18.75C23.79 18.75 25.25 20.21 25.25 22C25.25 23.79 23.79 25.25 22 25.25Z" fill="#3D5278"/>
<rect opacity="0.8" x="0.5" y="0.5" width="43" height="43" rx="21.5" stroke="#C3D4E9" stroke-opacity="0.4"/>
</svg>

